<svg xmlns="http://www.w3.org/2000/svg" width="972" height="846" viewBox="0 0 972 846" version="1.1"><path d="M 17.500 32.954 C 11.525 35.425, 10.523 38.165, 10.176 52.979 C 9.699 73.348, 8.699 72.620, 43.052 76.928 C 58.057 78.809, 99.955 78.302, 113.120 76.079 C 129.542 73.306, 165.393 71.585, 191.979 72.293 C 204.366 72.623, 217.875 72.476, 222 71.966 C 226.125 71.456, 234.225 70.567, 240 69.990 C 245.775 69.413, 254.100 68.300, 258.500 67.516 C 277.811 64.075, 369.900 63.203, 389 66.280 C 402.502 68.455, 423.169 69.994, 438.905 69.998 C 450.654 70, 451.226 70.092, 449.730 71.750 C 448.861 72.712, 446.556 76.149, 444.608 79.386 C 433.602 97.678, 391.918 143.192, 359.787 172 C 333.694 195.395, 326.509 203.682, 307.776 231.980 C 285.357 265.846, 276.333 277.731, 265.527 287.621 C 257.204 295.238, 249.546 307.406, 246.474 317.896 C 246.089 319.213, 244.098 322.138, 242.051 324.396 C 240.004 326.653, 236.370 331.200, 233.975 334.500 C 231.580 337.800, 227.090 343.200, 223.997 346.500 C 194.978 377.464, 189.159 411.183, 215.121 397.938 C 218.800 396.062, 219.370 396.012, 221.470 397.389 C 223.721 398.863, 226.216 399.014, 251.500 399.203 C 255.350 399.231, 269.075 398.662, 282 397.937 C 312.290 396.240, 323.863 396.207, 338 397.778 C 344.325 398.482, 356.700 399.488, 365.500 400.015 C 374.300 400.541, 386.225 401.506, 392 402.160 C 397.775 402.813, 416.370 403.452, 433.323 403.580 C 469.801 403.855, 469.618 403.616, 451.572 427.500 C 449.078 430.800, 443.431 440.700, 439.022 449.500 C 434.613 458.300, 428.030 470.450, 424.392 476.500 C 418.888 485.655, 408 509.735, 408 512.754 C 408 513.222, 404.867 518.307, 401.037 524.053 C 392.082 537.488, 391.477 538.351, 385.999 545.500 C 378.944 554.707, 374.815 560.929, 371.399 567.500 C 364.020 581.696, 360.746 587.596, 359.446 589.046 C 358.684 589.896, 356.667 593.663, 354.965 597.417 C 353.263 601.171, 349.610 607.655, 346.848 611.825 C 344.086 615.996, 340.753 621.528, 339.440 624.118 C 336.587 629.748, 328.748 641.318, 324.952 645.500 C 321.792 648.981, 314.724 660.277, 311.186 667.500 C 308.331 673.327, 298.604 687.404, 290.307 697.717 C 285.198 704.067, 279.617 714.038, 270.558 733 C 269.113 736.025, 265.937 741.875, 263.499 746 C 256.971 757.049, 252.503 766.682, 249.528 776.119 C 248.075 780.729, 246.311 785.400, 245.607 786.500 C 239.745 795.663, 229 823.569, 229 829.631 C 229 836.004, 234.164 839.965, 242.645 840.099 C 246.415 840.158, 252.980 840.272, 257.232 840.353 C 273.947 840.671, 278.679 823.785, 264.250 815.307 C 259.117 812.291, 259.043 813.881, 264.858 802.232 C 267.529 796.879, 270.911 788.900, 272.373 784.500 C 273.835 780.100, 277.950 771.100, 281.517 764.500 C 285.084 757.900, 292.040 744.625, 296.973 735 C 305.457 718.448, 308.227 714.133, 322.042 695.941 C 325.199 691.784, 329.377 685.259, 331.327 681.441 C 333.277 677.624, 337.263 671.067, 340.186 666.871 C 359.164 639.628, 368.741 624.437, 375.843 610.313 C 378.098 605.828, 382.139 598.410, 384.823 593.829 C 387.507 589.248, 391.350 582.350, 393.363 578.500 C 395.376 574.650, 401.310 565.650, 406.551 558.500 C 421.097 538.656, 427.695 528.301, 431.060 520.034 C 438.401 502.001, 439.832 498.953, 445.853 488.514 C 449.348 482.456, 454.785 472.321, 457.935 465.992 C 461.086 459.663, 466.411 450.213, 469.768 444.992 C 473.125 439.771, 478.894 430.325, 482.588 424 C 490.475 410.497, 492.858 407.092, 498.763 400.888 C 505.400 393.916, 505.686 385.461, 499.425 381.359 C 496.996 379.768, 492.577 379.594, 449.630 379.405 C 423.708 379.290, 397.325 378.701, 391 378.095 C 384.675 377.490, 372.975 376.562, 365 376.034 C 357.025 375.506, 344.425 374.324, 337 373.408 C 323.272 371.715, 289.051 372.436, 261.151 375.006 C 253.244 375.735, 250.637 375.570, 244.241 373.934 C 240.083 372.870, 236.527 372, 236.340 372 C 234.884 372, 236.889 368.754, 241.817 363.134 C 257.469 345.286, 265.159 334.656, 271.448 322.176 C 277.112 310.938, 278.764 308.593, 286.017 301.500 C 294.828 292.884, 308.488 275.525, 317.629 261.326 C 341.862 223.688, 343.080 222.064, 359.585 205.424 C 368.338 196.599, 378.875 186.724, 383 183.480 C 393.536 175.196, 412.408 156.633, 417.547 149.500 C 419.924 146.200, 424.635 140.800, 428.015 137.500 C 431.396 134.200, 437.140 127.900, 440.780 123.500 C 444.419 119.100, 449.472 113.250, 452.008 110.500 C 454.544 107.750, 459.022 101.900, 461.960 97.500 C 474.805 78.264, 480.746 71.519, 488.858 66.960 C 495.802 63.057, 497.907 55.452, 493.750 49.286 C 490.805 44.919, 490.095 44.802, 472.500 45.799 C 453.952 46.849, 416.229 45.742, 401.500 43.715 C 377.127 40.361, 363.205 39.721, 329.500 40.407 C 311.350 40.776, 289.525 41.215, 281 41.382 C 271.367 41.571, 260.769 42.473, 253 43.767 C 230.592 47.497, 218.268 48.340, 184.500 48.451 C 149.131 48.568, 121.993 50.052, 107.500 52.662 C 92.675 55.331, 52.780 54.630, 37.250 51.426 C 35.176 50.998, 35 50.416, 35 43.981 C 35 38.442, 34.690 37, 33.500 37 C 32.675 37, 32 36.527, 32 35.949 C 32 33.226, 21.890 31.138, 17.500 32.954 M 442.984 146.750 C 431.500 158.500, 431.500 158.500, 443.250 147.016 C 454.164 136.350, 455.454 135, 454.734 135 C 454.587 135, 449.300 140.287, 442.984 146.750 M 370.462 225.250 C 365.500 230.500, 365.500 230.500, 370.750 225.538 C 373.637 222.808, 376 220.446, 376 220.288 C 376 219.541, 375.074 220.372, 370.462 225.250" stroke="none" fill="#4d818e" fill-rule="evenodd"/><path d="M 928.973 13.704 C 923.712 17.330, 922.450 25.877, 925.207 39.223 C 926.193 43.998, 926.162 45.654, 925.038 48.283 C 923.455 51.983, 923.509 116.624, 925.096 118.587 C 925.945 119.637, 925.708 203.591, 924.495 331.614 C 923.926 391.728, 923.926 391.728, 918.713 392.278 C 915.846 392.581, 912.150 393.539, 910.500 394.408 C 906.629 396.446, 903.242 396.409, 899.500 394.285 C 890.892 389.401, 768.187 389.502, 756.782 394.403 C 752.328 396.317, 730.778 396.655, 726.315 394.881 C 717.335 391.312, 709.162 390.034, 695.218 390.017 C 672.064 389.989, 673.939 393.214, 674.026 353.569 C 674.071 333.571, 674.483 319.819, 675.050 319.469 C 675.589 319.136, 676 311.618, 676 302.100 C 676 289.311, 676.386 284.150, 677.621 280.409 C 679.462 274.833, 680.699 256.085, 681.871 216 C 682.478 195.251, 683 188.604, 684.276 185.370 C 685.622 181.964, 686.002 175.485, 686.450 148.370 C 687.563 80.934, 688.494 57.819, 690.269 53.500 C 697.450 36.022, 677.567 23.785, 668.763 40.265 C 666.594 44.323, 666.479 45.751, 666 74.500 C 665.596 98.729, 665.211 104.981, 664 107 C 662.786 109.023, 662.366 115.984, 661.796 143.500 C 660.449 208.534, 659.402 232.148, 657.675 236.500 C 656.522 239.405, 656.076 244.059, 656.044 253.507 C 656.020 260.660, 655.481 268.085, 654.848 270.007 C 654.178 272.036, 653.643 280.836, 653.570 291 C 653.468 305.267, 653.127 309.187, 651.723 312.218 C 650.157 315.597, 650 321.063, 650 372.224 C 650 411.934, 649.661 429.542, 648.851 432.007 C 648.170 434.076, 647.660 443.042, 647.601 454 C 647.522 468.530, 647.178 473.036, 646 475 C 644.741 477.099, 644.386 486.238, 643.786 532 C 642.709 614.216, 641.805 640.990, 640.005 644 C 638.155 647.095, 637.243 663.346, 636.191 712 C 635.527 742.680, 635.191 747.907, 633.718 750.500 C 628.071 760.434, 631.788 832, 637.951 832 C 641.224 832, 646.217 832.497, 649.047 833.104 C 656.251 834.648, 655.947 836.252, 656.024 796.253 C 656.067 774.479, 656.474 759.825, 657.047 759.471 C 657.621 759.116, 658 745.174, 658 724.409 C 658 694.498, 658.219 689.444, 659.655 686.218 C 661.574 681.906, 662.736 665.008, 663.802 625.901 C 664.362 605.370, 664.797 599.944, 666 598.498 C 667.275 596.965, 667.605 588.221, 668.199 540.097 C 669.057 470.616, 670.103 445.015, 672.311 439.500 C 673.450 436.655, 673.925 432.106, 673.956 423.750 C 673.999 412.264, 689.202 406.301, 700.285 413.423 C 708.775 418.879, 778.422 419.083, 788.700 413.682 C 793.529 411.145, 828.633 411.198, 833.300 413.750 C 835.989 415.221, 840.573 415.621, 862 416.258 C 912.856 417.771, 914.343 417.870, 916.049 419.891 C 916.901 420.900, 918.890 422.402, 920.468 423.229 C 926.144 426.203, 925.908 417.132, 925.956 634.350 C 926.005 857.767, 925.139 841.029, 936.650 840.985 C 948.674 840.939, 949.314 838.794, 949.760 797.073 C 950.160 759.699, 950.206 759.096, 952.536 761.030 C 954.664 762.796, 955.399 761.608, 953.893 758.836 C 950.375 752.360, 950.096 739.673, 950.048 583.407 C 950.001 432.982, 949.965 430.212, 948 424.500 C 944.883 415.441, 944.898 290.847, 948.017 280.910 C 950.936 271.610, 950.689 112.523, 947.750 109.276 C 944.945 106.177, 945.145 65.243, 948 58 C 950.838 50.801, 950.825 33.415, 947.978 27.141 C 946.890 24.743, 946 21.886, 946 20.791 C 946 14.408, 934.747 9.724, 928.973 13.704 M 285 27.729 C 280.076 30.052, 261.310 30.949, 200 31.792 C 156.901 32.384, 148.092 32.745, 146 34 C 142.798 35.921, 122.145 36.924, 72.250 37.580 C 37.979 38.030, 15.473 46.934, 37.250 51.426 C 52.780 54.630, 92.675 55.331, 107.500 52.662 C 121.993 50.052, 149.131 48.568, 184.500 48.451 C 218.268 48.340, 230.592 47.497, 253 43.767 C 260.769 42.473, 271.367 41.571, 281 41.382 C 289.525 41.215, 311.350 40.776, 329.500 40.407 C 363.205 39.721, 377.127 40.361, 401.500 43.715 C 416.229 45.742, 453.952 46.849, 472.500 45.799 C 490.095 44.802, 490.805 44.919, 493.750 49.286 C 497.907 55.452, 495.802 63.057, 488.858 66.960 C 480.746 71.519, 474.805 78.264, 461.960 97.500 C 459.022 101.900, 454.544 107.750, 452.008 110.500 C 449.472 113.250, 444.419 119.100, 440.780 123.500 C 437.140 127.900, 431.396 134.200, 428.015 137.500 C 424.635 140.800, 419.924 146.200, 417.547 149.500 C 412.408 156.633, 393.536 175.196, 383 183.480 C 378.875 186.724, 368.338 196.599, 359.585 205.424 C 343.080 222.064, 341.862 223.688, 317.629 261.326 C 308.488 275.525, 294.828 292.884, 286.017 301.500 C 278.764 308.593, 277.112 310.938, 271.448 322.176 C 265.159 334.656, 257.469 345.286, 241.817 363.134 C 236.889 368.754, 234.884 372, 236.340 372 C 236.527 372, 240.083 372.870, 244.241 373.934 C 250.637 375.570, 253.244 375.735, 261.151 375.006 C 289.051 372.436, 323.272 371.715, 337 373.408 C 344.425 374.324, 357.025 375.506, 365 376.034 C 372.975 376.562, 384.675 377.490, 391 378.095 C 397.325 378.701, 423.708 379.290, 449.630 379.405 C 492.577 379.594, 496.996 379.768, 499.425 381.359 C 505.686 385.461, 505.400 393.916, 498.763 400.888 C 492.858 407.092, 490.475 410.497, 482.588 424 C 478.894 430.325, 473.125 439.771, 469.768 444.992 C 466.411 450.213, 461.086 459.663, 457.935 465.992 C 454.785 472.321, 449.348 482.456, 445.853 488.514 C 439.832 498.953, 438.401 502.001, 431.060 520.034 C 427.695 528.301, 421.097 538.656, 406.551 558.500 C 401.310 565.650, 395.376 574.650, 393.363 578.500 C 391.350 582.350, 387.507 589.248, 384.823 593.829 C 382.139 598.410, 378.098 605.828, 375.843 610.313 C 368.741 624.437, 359.164 639.628, 340.186 666.871 C 337.263 671.067, 333.277 677.624, 331.327 681.441 C 329.377 685.259, 325.199 691.784, 322.042 695.941 C 308.227 714.133, 305.457 718.448, 296.973 735 C 292.040 744.625, 285.084 757.900, 281.517 764.500 C 277.950 771.100, 273.835 780.100, 272.373 784.500 C 270.911 788.900, 267.529 796.879, 264.858 802.232 C 259.039 813.889, 259.100 812.283, 264.358 815.364 C 266.755 816.769, 269.491 819.101, 270.438 820.546 C 272.621 823.877, 272.604 823.899, 276.476 812.801 C 280.212 802.097, 292.453 777.183, 297.395 770.227 C 299.242 767.627, 301.534 763.925, 302.489 762 C 303.443 760.075, 305.964 756.406, 308.090 753.847 C 310.216 751.288, 312.888 746.701, 314.028 743.654 C 316.099 738.118, 323.162 726.719, 327.445 722 C 330.579 718.546, 338.377 706.183, 342.134 698.709 C 343.851 695.294, 346.766 690.819, 348.612 688.764 C 350.458 686.710, 354.507 679.960, 357.608 673.764 C 360.710 667.569, 364.762 660.817, 366.612 658.760 C 368.463 656.703, 373.184 648.603, 377.105 640.760 C 381.676 631.618, 386.189 624.202, 389.681 620.096 C 392.676 616.573, 396.508 610.948, 398.197 607.596 C 399.885 604.243, 402.496 599.700, 403.998 597.500 C 405.501 595.300, 407.928 591.250, 409.391 588.500 C 410.854 585.750, 414.740 579.225, 418.026 574 C 421.312 568.775, 425.314 561.998, 426.919 558.940 C 428.524 555.882, 430.565 552.776, 431.455 552.038 C 434.012 549.915, 448.226 528.221, 452.161 520.434 C 454.125 516.548, 457.307 511.305, 459.233 508.782 C 461.159 506.259, 463.049 502.941, 463.434 501.408 C 463.818 499.876, 464.932 497.470, 465.908 496.061 C 466.884 494.652, 472.750 483.375, 478.943 471 C 485.137 458.625, 491.463 446.895, 493.002 444.934 C 494.540 442.972, 498.325 436.447, 501.412 430.434 C 512.372 409.083, 522.428 392.958, 530.177 384.309 C 538.253 375.296, 536.100 365.479, 525.248 361.834 C 522.448 360.894, 504.184 360.439, 453 360.038 C 390.259 359.545, 384.248 359.353, 381.500 357.756 C 376.275 354.719, 282.942 355.124, 274.305 358.221 C 265.695 361.309, 265.759 360.605, 275.184 348.673 C 279.758 342.882, 284.850 336.266, 286.500 333.971 C 288.150 331.675, 290.746 328.155, 292.270 326.149 C 293.793 324.142, 295.964 320.766, 297.093 318.646 C 298.223 316.526, 301.701 311.920, 304.823 308.411 C 313.217 298.976, 316.262 295.147, 320.595 288.582 C 322.743 285.327, 325.621 281.052, 326.991 279.082 C 328.361 277.112, 330.611 273.633, 331.991 271.352 C 334.821 266.674, 338.408 262.076, 345.052 254.613 C 347.555 251.801, 350.372 248.272, 351.311 246.771 C 352.250 245.270, 354.318 243.370, 355.907 242.548 C 357.495 241.727, 360.176 238.810, 361.864 236.066 C 366.089 229.199, 376.468 217.775, 404.095 189.580 C 417.072 176.336, 428.868 163.423, 430.308 160.885 C 431.748 158.347, 439.305 150.124, 447.101 142.613 C 454.898 135.101, 462.504 127.053, 464.004 124.728 C 465.504 122.403, 468.183 119.150, 469.957 117.500 C 471.731 115.850, 474.061 112.792, 475.135 110.705 C 476.208 108.618, 478.547 105.243, 480.332 103.205 C 483.612 99.460, 488.526 92.242, 493.406 84 C 494.871 81.525, 497.517 77.622, 499.285 75.327 C 501.053 73.032, 504.300 68.590, 506.500 65.456 C 508.700 62.321, 512.801 57.224, 515.614 54.128 C 523.453 45.502, 524.748 41.281, 521.490 34.980 C 518.984 30.135, 518.039 30, 486.603 30 C 459.432 30, 456.669 29.840, 452 28 C 444.929 25.213, 430.978 25.202, 424.859 27.978 C 418.808 30.724, 405.559 30.734, 397 28 C 388.196 25.188, 290.887 24.952, 285 27.729" stroke="none" fill="#057292" fill-rule="evenodd"/></svg>